<?xml version="1.0" encoding="utf-8"?>
<!-- Generator: Adobe Illustrator 22.1.0, SVG Export Plug-In . SVG Version: 6.00 Build 0)  -->
<svg version="1.1" id="Layer_1" xmlns="http://www.w3.org/2000/svg" xmlns:xlink="http://www.w3.org/1999/xlink" x="0px" y="0px"
	 viewBox="0 0 2880 1144" style="enable-background:new 0 0 2880 1144;" xml:space="preserve">
<style type="text/css">
	.st0{fill:#231F20;}
</style>
<title>banner-mono</title>
<path class="st0" d="M1696.8,305c7.5,0.2,14.2-5.5,17.1-12.4s2.4-14.8,1-22.1s-4.5-15.2-11.1-19c-6.3-3.6-11.3-2.1-15.1,1.9
	c-7.4,7.8-10.2,25.1-9.4,32.6C1680.3,295.3,1687.4,304.7,1696.8,305z"/>
<path class="st0" d="M2605.5,656.3L2759,269.5l-30.3-31.8l-298.3,25.1l-3.6-131.8l-379.5,5.5l-17.7,25.1l-19.4-25.2l-1518.1-1.6
	l7.2-91.9l-460,8.5l72.5,118.5l31.4,5.4L126,193.2l132.6,216.6L86.9,841.4l290.4-12.8l-24.7,177.6l436.9-16.7l13.3-28.9l23.9,29.2
	l1546.1,9.1l5.5,96.9l446-31.5L2605.5,656.3z M2219.3,226.9c6.8-6.3,15.4-10,25.8-9.1c16.4,1.3,27.8,17.1,33.7,32.5
	c5,13.2,7.7,27.7,5.1,41.5s-11.3,27.1-24.2,32.8c-18.6,8.2-42-1.6-52.3-19.1C2195.5,285.5,2199.8,245.1,2219.3,226.9z M1956.5,227.6
	l26.3-0.4l2,108.3l-29.4,0.7L1956.5,227.6z M1657.1,261c5.1-21.7,18.3-41.6,39.5-41c13.3,0.4,23.9,11.1,30.9,22.4
	c9.4,15.2,14.9,33.6,11.5,51.2s-17,33.7-34.6,36.7c-19.2,3.2-38.7-10-46.1-28C1653.9,291.8,1653.6,276,1657.1,261z M1438.7,223
	l-3.1,102.5l-23.1,1.8l-2-108.3L1438.7,223z M1121.8,235.1c6.6-9.4,16.7-15.8,28.1-17.7c12.5-2.2,26.4,2.2,34.2,12.3
	c5.5,7.2,7.6,16.4,8.7,25.3c2.4,19.6,0.1,41-12.1,56.5s-36.6,22.4-52.6,10.8c-9.2-6.7-14.2-17.9-16.4-29
	C1107.8,274.2,1110.4,250.9,1121.8,235.1L1121.8,235.1z M864.3,216.2l32.1-5.5l-7.6,124.6L861.7,325L864.3,216.2z M593.1,212.6
	c5.9-2.6,12.2-3.8,18.6-3.6c5.6,0,11.5,1.3,16,4.6c3,2.4,5.6,5.4,7.6,8.8c16.2,26.1,13.1,62.7-7.2,85.7
	c-4.8,5.4-10.7,10.3-17.8,11.7c-13.4,2.7-26.1-7.5-33.2-19.1C560.5,273.5,563,226,593.1,212.6L593.1,212.6z M369.4,465.6l-1,326.6
	l-234,20.9l165.8-387.7L192.8,235.1l187.4,4.2L369.4,465.6z M830.3,955.5l-23.7-26.1l-32,27.2l-354-2.7L432,382.4l1959.8,10.8
	l13.1,286.6l34.3,275.5L830.3,955.5z M2432,1008.9l56-34.3l-37-298.4l-6.4-223.7l179.3-2.3l23.9,29.2l-82.2,182.9l188.1,360.7
	l-325,35.8L2432,1008.9z"/>
<path class="st0" d="M596.9,294.1c5.5,3.5,13.1,2.4,18.2-1.6s8.1-10.3,9.4-16.7c2.1-10.7,0.3-21.9-5.3-31.3
	c-2.8-4.7-6.8-9-11.9-10.9c-7.5-2.7-12.4-0.3-15.4,4.6c-6.4,10.2-5,31.3-3.5,39.6C589.5,284.1,591.6,290.7,596.9,294.1z"/>
<path class="st0" d="M1141.9,307c4.4,3.5,11,1.2,15.4-2.3c10.1-8.1,14.9-21.5,14.8-34.4c-0.1-7.1-1.6-14.5-6.6-19.6
	c-7-7-18.2-7.4-25.7-0.9c-12.3,11.2-7.4,39.5-1.4,52.2C1139.2,303.9,1140.4,305.6,1141.9,307z"/>
<path class="st0" d="M2239.7,303.4c28.4,11.4,27.8-34.5,18.8-49c-2.1-3.4-4.9-6.6-8.6-7.8c-16.1-5.2-28.2,19-24.8,35.6
	C2226.7,290.3,2231.6,300.1,2239.7,303.4z"/>
<path class="st0" d="M700.6,468.2c-0.4-2.1-36.8-15.8-40.3-16.7c-38.7-9.5-81.3-0.9-105.1,33.2C529,522.2,542.3,574,582,597.1
	c18,10.5,47.2,11.8,60.9,30.2c9.6,12.8,5.1,27.5-7.9,35.6c-16.1,10.1-32.1,4.8-48.4-1.5c-14.3-5.5-28.6-10.9-42.9-16.4l-1.5,51.9
	c0,1.8,26.4,11.3,29.4,12.5c33,13.5,70.7,12.6,103.9,0.4c29.3-10.8,32.3-45.8,33.2-73c0.2-6.9-1.8-13.6-3.8-20.2
	c-9.4-31.9-21.9-34-49.7-47.8c-12.6-6.3-26-11.6-37.3-20.2c-8.4-6.5-15.9-16.7-16-27.7c-0.3-20.5,24.4-29.1,38.2-28.3
	c8.4,0.5,38.2,13.4,57.7,25.1C697.8,517.5,700.5,470.3,700.6,468.2"/>
<path class="st0" d="M745.2,447.3c0,0,59,10.1,62.6,10.7c1.6,0.3-5.7,78.5-6.2,84.5c-1.9,25.1-6.5,51.9-0.5,76.9
	c5.1,21.2,34.9,62,55,29.1c18.3-29.8,17.8-78.6,19.5-112.2c0.2-5.1,2.3-77.3,3.8-77.4l55.5-4.2c0.6,28.6,2.4,75.3,2.7,93.1
	c1.7,83.8-11.3,169.2-114,169.1c-50.8,0-81.9-57.2-81.2-101.9C742.4,614.9,745.2,447.3,745.2,447.3"/>
<path class="st0" d="M979,723l-1-271.7l52.4-4l68.9,131.2l9.4-121.6l59,1.7l-2.5,265.8l-70.3,0.2l-60.8-147.3l1.8,145.6L979,723z"/>
<path class="st0" d="M1388.2,670.1c1.2,13.9,2.3,27.8,3.5,41.6c0.2,1.2,0.1,2.4-0.5,3.4c-0.7,0.8-1.7,1.3-2.7,1.5
	c-27.3,8.1-55.9,13.5-84.2,9.8c-45.5-5.9-85.5-40.7-92.7-86.9c-5.4-34.9-10.6-71.8,2.5-104.6c15-37.7,40-55.4,78.1-69.4
	c30.6-11.3,72.5-4.2,102.6,3.8c-0.9,16.7-1.8,33.5-2.6,50.2c-30.2-13.6-106.2-22.1-122.9,17.3c-7.9,18.8-6.9,46.4-6,66.4
	C1265.8,659.8,1339.6,689.9,1388.2,670.1"/>
<path class="st0" d="M1758.3,602.9l34.8,9.8l-15.1-76.4L1758.3,602.9z M1751.1,467l55.9,2l75.8,263.9l-55.5,4.2l-21.5-79l-52.6,0.9
	l-25,79.4l-62.6-7.6L1751.1,467z"/>
<path class="st0" d="M1535.5,677.7c12.7,2.2,25.5,0.4,36.1-8.8c15.5-13.5,20.6-36.8,20.2-56.5c-0.6-28.2-14.8-59.3-36.8-77.5
	c-11.7-9.7-28.5-14.8-42.5-8.8c-12.6,5.5-20.1,18.4-26,30.8c-8,16.8-14.7,34.7-14.9,53.3c-0.2,25,13.2,44.2,34.4,56.3
	C1514.9,671.6,1525.1,676,1535.5,677.7 M1457.1,497.8c10.9-10.7,23.9-19.1,38.2-24.6c31.4-11.9,66.4-9.8,96.2,5.7
	c73.6,39,80.2,141.1,36.2,204.8c-16.9,24.5-41.3,43.5-70.8,49.9c-86.5,18.8-148.7-68-140.6-147
	C1419.6,554.2,1433.6,520.7,1457.1,497.8"/>
<path class="st0" d="M2063.2,479.7c0,0,1.4,51.1,1.4,51.2c-15.6-7.5-44.8-14.4-53.3-14.7c-16.8-0.6-33.2,0.5-43.1,17.2
	c-4.4,7.4-2.1,17.2,3.2,23.9c13.8,17.5,39.4,22.5,58.5,31.7c44.4,21.6,64.4,73.4,37.5,117.2c-18,29.3-51.9,27.1-82.6,25.4
	c-7.1-0.4-69.2-7.3-69.3-13.5c0,0-0.1-45.4-0.1-45.9c14.3,5.1,36.3,9.2,44.2,10.6c18.3,3.2,24.6,4.7,42.6-0.9
	c4.7-1.5,10.2-5.5,14-8.6c10-8.1,7.7-19.2,0.7-28.4c-4.1-5.5-10.1-9.2-16.2-12.4c-15-7.7-31.3-12.3-46.9-18.9
	c-35.8-15.2-54.9-43.7-48.6-83.3c5.1-32.1,18.8-58.6,52.5-67c17.4-4.3,37-3.4,54.4,0.9C2016.9,465.6,2063.2,477.4,2063.2,479.7"/>
<path class="st0" d="M2118.1,479.7l2.1,54.8l61.4-4.6l12.2,213.7l58.1-8.4l-5.6-211.6l55.9-1.9l1.2-56.4L2118.1,479.7z"/>
<path class="st0" d="M573.5,871.6c10.9-4.7,17.5-16.7,17.5-28.6c0-28.7-20.4-32-42.7-36.6v68.2C548.3,875.4,571.8,872.3,573.5,871.6
	 M519,897.5c0,0,3.6-112,3.7-114.9c0-0.3,36.8-0.9,39.7-0.8c25.2,1,51.8,19,54.6,45.4c4.2,39.7-11.8,57.7-48.6,66.5
	C564.8,894.6,518.8,904.1,519,897.5"/>
<path class="st0" d="M650.7,781l-5.1,96.5l8.2,20l68.9,3l3.3-24l-50.7-0.3v-26.9l44.6,1.8l4.2-26.2l-48.7-1.5l-1.3-17.5l50.5-1.8
	L729,781H650.7z"/>
<path class="st0" d="M751.1,783.8l27.7-2.1l25.5,76.6l21.3-72.9l25.8-0.9l-39.8,115.7l-25-2.2L751.1,783.8z"/>
<path class="st0" d="M867.9,784.2l-0.8,98.2l-0.7,17.6l82.9,3l-0.6-21.7l-55.2-6.1l2.4-22.9l48.4-1.6l-2.6-20.5l-42.5-1.9l-1.9-24.7
	l50.8,2.3l1.8-17.7L867.9,784.2z"/>
<path class="st0" d="M972.3,784.5l26.1,3.2l-0.6,87.9l51,4.4l-0.4,21.7l-62.2-2.5l-15.4-12.3L972.3,784.5z"/>
<path class="st0" d="M1095.4,823.1c-4.3,4.7-7.2,10.5-8.5,16.8c-4.5,23.8,18.3,50.7,42.4,42.9c15.2-4.9,28-18.5,29.4-34.4
	c2-23.3-17.2-33.2-36.9-35.6C1111.6,811.6,1102,815.9,1095.4,823.1 M1079.7,806.7c11.6-12.5,22.9-23.5,41.3-20.1
	c28.3,5.3,55.8,13.1,62.2,45.4c3,14.7,3.4,37.4-6.2,49.8c-3.8,4.9-9.1,8.2-14.3,11.5c-21.2,13.4-49.8,20.8-72.6,5.1
	c-1.9-1.4-3.6-3.2-5-5.1c-9-11-18-22.7-21.3-36.5C1058.9,836.1,1067.2,820.1,1079.7,806.7"/>
<path class="st0" d="M1237.8,810.8l0.8,23.7c14.6,2.7,31.4,1.5,32.9-8.7S1258.6,810.1,1237.8,810.8 M1269.1,795.5
	c12.1,4.6,22.6,16.3,23.3,21c4.7,30.6-28.5,42.9-55.2,41.9l-2.8,44.6l-26.2-4.2c0,0,3.8-109.8,4.1-109.8
	C1233.8,789.2,1245.3,786.5,1269.1,795.5"/>
<path class="st0" d="M1314.9,791.5l-1.4,117.9l17.5-0.3l62.8-2.7l-2-25.7l-50.6,0.7l-0.8-23.7l49.8,2.4l0.2-24.8l-45.7-2.7
	l-2.2-15.3l52.7,0.1l3-28.1L1314.9,791.5z"/>
<path class="st0" d="M1461.5,817.6l2,26.7c0.6,8.4,32.3-2.8,31.6-13.1C1494.3,819,1461.6,819,1461.5,817.6 M1506,801.1
	c14.1,6.2,17.5,15.7,17.2,32c-0.1,2.9-4.2,25.9-24.9,29.8l30.1,45.8l-29.7,3.3l-24.9-42.5l-11.3,0.9l2.2,43.2l-27.1-3.1
	c0,0-0.4-117.9-0.4-118c21.8,0.7,42.8,1.3,46.6,1.9C1489.9,795.1,1500.9,798.8,1506,801.1"/>
<path class="st0" d="M1638.6,795.9l1.8,23.6c-21.6-4.1-52.6-17.7-55.7,1.1s49.4,20.5,57.9,50.3c5.6,19.6-7,32.3-22.6,33.9
	c-5.8,0.6-44.2,0.3-63.6-7.6c0,0,1.4-20.7,1.4-21.8c-0.1,0.8,22.2,8.6,24.3,9c11.2,1.9,34.9,1.9,34.1-8.8
	c-1.1-13.9-35.8-24.9-38.1-26.2c-6-3.4-12.3-6.9-16.2-12.6c-6.5-9.3-5-22.7,1.6-32C1580.5,780.9,1614.7,792.7,1638.6,795.9"/>
<path class="st0" d="M1879.4,796.2l-0.2,24.8c0.8-4.2-40.8-5.4-45.9-3.5c-15.8,6-30.7,28.6-25.5,45.7c3.2,10.4,15.3,20,24.7,23
	c2,0.7,23.5,1.8,23.6-1.5l0.7-18.7l-27-2.1l-0.5-20.6l55,3.1c0,0,1,53.6,1,53.7c-0.2,3.8-29.8,8.2-33.2,8.7
	c-18,2.8-36.3-2.9-49.6-15.4c-14.6-13.9-26.7-42.1-19.7-62.1c6.1-17.3,28.9-36.1,46.3-40.5C1833.6,789.8,1879.5,791.7,1879.4,796.2"
	/>
<path class="st0" d="M1936.4,798.1l30.3,4.9c-0.1,11.8-0.2,23.7-0.4,35.5c-0.1,12.2-1.6,24.8,1.2,36.9c3,13,17.6,20.2,28.7,11.3
	s12-25.6,12.7-38.6c0.2-4-0.8-49.2-1.2-49.2h26.9l-0.9,46.8c-0.4,18.7,3.3,42.7-11.6,57.2c-13.8,13.5-36.5,16.2-54.5,10.9
	c-16-4.7-26.8-24.5-27.4-40.7c-0.4-10-1-20-1.5-30C1938,828.2,1937.2,813.1,1936.4,798.1"/>
<path class="st0" d="M2086,795.7l-0.7,112.9l27.9-0.1l1.9-110.7L2086,795.7z"/>
<path class="st0" d="M2166.3,790.9l29.3,5l-2.8,86l51,5.4l-0.5,20.7l-64.4-4.4l-14.4-12.3L2166.3,790.9z"/>
<path class="st0" d="M2313.1,819c0,0-1.2,66.1-1.2,66.2c0,3.8,25.8-0.9,28.3-2.1c16.2-8,20-30.2,13.1-45.5
	C2344.9,819,2330.3,819.8,2313.1,819 M2355.2,797.8c19.7,9.5,31.2,31.2,30.3,54.7c-1.3,33.6-28,58.3-60.9,61
	c-3.3,0.3-39.5-1-39.5-0.3c0.4-39.7,0.8-79.3,1.3-118.9c0.1-3.4,43.8-1.5,47.9-1.4C2341.5,793,2348.7,794.6,2355.2,797.8"/>
</svg>
