<svg id="Layer_1" data-name="Layer 1" xmlns="http://www.w3.org/2000/svg" viewBox="0 0 2880 1144"><defs><style>.cls-1{fill:#37352f;opacity:0.5;}.cls-2{fill:#f7f1d9;}.cls-3{fill:#c5a7b4;}.cls-4{fill:#606060;}.cls-5{fill:#885780;}</style></defs><title>banner</title><polygon class="cls-1" points="2617.67 662.33 2771.19 275.57 2740.88 243.77 2442.59 268.9 2438.98 137.1 2059.46 142.57 2041.74 167.72 2022.33 142.54 504.18 140.9 511.41 48.98 51.45 57.5 123.98 175.98 155.41 181.35 138.26 199.29 270.88 415.93 99.06 847.47 389.49 834.71 364.76 1012.27 801.61 995.6 814.92 966.68 838.83 995.87 2384.93 1004.99 2390.41 1101.88 2836.43 1070.39 2617.67 662.33"/><polygon class="cls-2" points="495.7 172.28 502.22 348.31 2349.46 361.36 2332.07 178.8 495.7 172.28"/><polygon class="cls-3" points="158.85 210.63 276.2 428.73 111.04 823.28 402.25 811.21 389.21 978.55 773.87 976.38 802.12 945.95 836.89 976.38 2397.27 980.72 2397.27 1078.52 2790.63 1043.75 2582 659.09 2668.93 463.5 2629.81 422.2 2436.39 409.17 2414.66 348.31 437.02 341.8 417.46 222.27 158.85 210.63"/><path class="cls-4" d="M707,477.56c-.38-2.14-36.78-15.8-40.35-16.68-38.68-9.55-81.26-.88-105.07,33.17-26.24,37.53-12.87,89.32,26.84,112.44,18,10.46,47.16,11.82,60.88,30.16,9.58,12.82,5.11,27.47-7.89,35.65-16.11,10.11-32.13,4.79-48.45-1.52-14.29-5.52-28.63-10.91-42.94-16.35,0,0-1.51,51.9-1.51,51.93,0,1.78,26.43,11.33,29.37,12.53,33,13.53,70.73,12.62,103.95.35,29.32-10.82,32.29-45.82,33.23-73,.17-6.89-1.81-13.64-3.76-20.25-9.43-31.85-21.88-34-49.67-47.83-12.63-6.3-26-11.57-37.29-20.25-8.38-6.45-15.85-16.72-16-27.69-.33-20.53,24.4-29.07,38.22-28.28,8.44.47,38.22,13.36,57.71,25.06,0,0,2.63-47.3,2.76-49.41"/><path class="cls-4" d="M751.58,456.72l62.64,10.7c1.56.27-5.73,78.48-6.19,84.48-1.9,25.13-6.47,51.93-.51,76.85,5.07,21.18,34.86,62,55,29.12,18.26-29.76,17.85-78.55,19.48-112.2.25-5.08,2.27-77.32,3.76-77.44L941.23,464c.63,28.62,2.37,75.27,2.74,93.06,1.71,83.84-11.28,169.16-114,169.14-50.8,0-81.92-57.17-81.18-101.89l2.77-167.61"/><path class="cls-4" d="M985.39,732.43l-1-271.69,52.4-4,68.87,131.17L1115,466.31l59,1.72-2.54,265.76-70.26.17-60.79-147.28,1.76,145.57Z"/><path class="cls-4" d="M1394.6,679.46q1.76,20.82,3.5,41.65a3.68,3.68,0,0,1-3.22,4.85c-27.29,8.07-55.94,13.49-84.16,9.82-45.51-5.93-85.54-40.67-92.74-86.95-5.42-34.89-10.64-71.78,2.46-104.57,15-37.68,40-55.39,78.11-69.41,30.61-11.28,72.55-4.19,102.59,3.84q-1.31,25.13-2.63,50.25c-30.16-13.58-106.23-22.14-122.86,17.25-7.93,18.78-6.92,46.44-6,66.42,2.57,56.58,76.31,86.69,125,66.85"/><path class="cls-4" d="M1764.69,612.25l34.84,9.76-15.11-76.36Zm-7.22-135.85,56,2,75.84,263.94-55.47,4.21-21.5-79-52.63.9-25,79.39-62.58-7.65Z"/><path class="cls-4" d="M1541.84,687.13c12.71,2.17,25.54.42,36.05-8.78,15.46-13.53,20.56-36.78,20.16-56.48-.6-28.21-14.81-59.32-36.76-77.51-11.7-9.72-28.49-14.85-42.45-8.81-12.61,5.46-20.09,18.39-26,30.8-8,16.8-14.74,34.71-14.87,53.31-.18,25,13.19,44.2,34.41,56.3,8.85,5,19.11,9.41,29.44,11.17m-78.38-179.92a112.5,112.5,0,0,1,38.18-24.59,117.76,117.76,0,0,1,96.23,5.7c73.56,39,80.17,141.13,36.19,204.76-16.93,24.5-41.31,43.46-70.77,49.87-86.49,18.82-148.68-68-140.63-147,3.3-32.37,17.31-65.88,40.8-88.77"/><path class="cls-4" d="M2069.61,489.12s1.41,51.06,1.41,51.19c-15.55-7.5-44.77-14.42-53.29-14.71-16.84-.57-33.21.54-43.14,17.24-4.37,7.36-2.06,17.21,3.24,23.94,13.77,17.47,39.42,22.48,58.46,31.74,44.4,21.59,64.43,73.43,37.51,117.22-18,29.31-51.9,27.1-82.55,25.36-7.08-.4-69.2-7.3-69.32-13.51,0,0-.07-45.44-.07-45.9,14.34,5.1,36.3,9.21,44.21,10.58,18.34,3.21,24.6,4.75,42.55-.9,4.68-1.48,10.23-5.5,14.05-8.57,10-8.07,7.66-19.24.67-28.43-4.15-5.46-10.11-9.23-16.2-12.37-15-7.74-31.35-12.3-46.85-18.89-35.84-15.23-54.92-43.7-48.63-83.27,5.1-32.07,18.81-58.64,52.53-67,17.42-4.31,37-3.41,54.36.94,4.78,1.2,51,13,51.06,15.33"/><path class="cls-4" d="M2124.47,489l2.09,54.79L2188,539.2l12.2,213.74,58.12-8.42L2252.64,533l56-1.85,1.21-56.39Z"/><path class="cls-4" d="M579.85,881c10.85-4.71,17.53-16.75,17.52-28.58,0-28.7-20.38-32-42.74-36.6,0,0,0,67.85,0,68.2,0,.79,23.58-2.31,25.21-3m-54.47,25.91s3.57-112,3.67-114.92c0-.3,36.77-.9,39.75-.78,25.22,1,51.78,19,54.59,45.45,4.22,39.65-11.78,57.68-48.59,66.51-3.63.87-49.62,10.39-49.42,3.74"/><path class="cls-4" d="M657.07,790.43,652,886.92l8.24,20,68.95,3,3.34-24-50.65-.29,0-26.87,44.57,1.78,4.22-26.15L682,833l-1.33-17.46,50.5-1.77,4.45-23.07Z"/><path class="cls-4" d="M757.51,793.14,785.24,791l25.46,76.6L832,794.71l25.77-.92L818,909.44l-25-2.23Z"/><path class="cls-4" d="M874.31,793.56l-.81,98.23-.72,17.62,82.89,3-.61-21.65-55.23-6.14,2.39-22.91,48.44-1.62-2.59-20.47-42.51-1.93L903.68,813l50.82,2.34,1.75-17.7Z"/><path class="cls-4" d="M978.7,793.9l26.07,3.19-.55,87.87,51,4.4-.41,21.73-62.2-2.51-15.39-12.26Z"/><path class="cls-4" d="M1101.81,832.46a34.43,34.43,0,0,0-8.46,16.82c-4.54,23.8,18.32,50.74,42.42,42.94,15.21-4.91,28-18.51,29.35-34.43,2-23.31-17.21-33.23-36.87-35.56a31,31,0,0,0-26.44,10.23m-15.74-16.33c11.61-12.46,22.86-23.54,41.33-20.11,28.27,5.26,55.76,13.14,62.23,45.44,2.95,14.75,3.36,37.43-6.23,49.76-3.78,4.86-9.1,8.25-14.3,11.54-21.16,13.37-49.78,20.81-72.59,5.06a25.65,25.65,0,0,1-5-5.1c-9-11-18-22.69-21.28-36.54-4.85-20.66,3.38-36.65,15.88-50"/><path class="cls-4" d="M1244.19,820.23l.77,23.71c14.65,2.68,31.37,1.49,32.92-8.7s-12.89-15.79-33.69-15m31.34-15.38c12.08,4.56,22.62,16.31,23.34,21,4.66,30.65-28.54,42.92-55.2,41.91l-2.8,44.65-26.16-4.22s3.8-109.84,4.06-109.84c21.45.18,32.91-2.54,56.76,6.46"/><path class="cls-4" d="M1321.26,800.94l-1.37,117.9,17.54-.3,62.83-2.71-2-25.68-50.58.74-.77-23.71,49.79,2.42.18-24.81-45.68-2.73-2.2-15.34,52.71.13,3-28.12Z"/><path class="cls-4" d="M1467.91,827l2,26.7c.65,8.36,32.32-2.78,31.59-13.14-.86-12.13-33.54-12.2-33.61-13.56m44.46-16.56c14.06,6.25,17.47,15.72,17.16,32-.06,2.93-4.23,25.89-24.86,29.78L1534.75,918,1505,921.31l-24.94-42.54-11.3.86,2.25,43.23-27.1-3.11s-.44-117.93-.44-118c21.75.67,42.8,1.34,46.64,1.87,6.13.86,17.11,4.57,22.22,6.84"/><path class="cls-4" d="M1645,805.27l1.79,23.63c-21.65-4.12-52.63-17.7-55.65,1.13s49.43,20.52,57.89,50.27c5.56,19.64-7,32.3-22.63,33.85-5.83.58-44.15.26-63.6-7.57,0,0,1.37-20.67,1.44-21.76-.06.79,22.16,8.65,24.3,9,11.25,1.89,34.92,1.94,34.1-8.84-1.06-13.87-35.83-24.92-38.08-26.18-6-3.36-12.27-6.91-16.23-12.57-6.51-9.33-5-22.72,1.57-32,17-24,51.17-12.18,75.1-9"/><path class="cls-4" d="M1885.81,805.58s-.18,24.8-.19,24.81c.83-4.17-40.8-5.44-45.93-3.48-15.79,6-30.7,28.63-25.5,45.74,3.16,10.39,15.29,20,24.73,23,2,.66,23.53,1.84,23.65-1.53l.65-18.66-27-2.07-.53-20.63,55,3.06s1,53.61,1,53.66c-.23,3.83-29.77,8.16-33.16,8.71a59.13,59.13,0,0,1-49.57-15.42c-14.59-13.92-26.69-42.12-19.7-62.06,6-17.27,28.85-36.13,46.27-40.48,4.46-1.11,50.36.86,50.33,5.32"/><path class="cls-4" d="M1942.78,807.45l30.35,4.94q-.2,17.75-.35,35.49c-.11,12.24-1.59,24.83,1.18,36.9,3,13,17.63,20.17,28.72,11.25s12-25.55,12.67-38.62c.2-4-.8-49.18-1.21-49.18l26.87,0q-.45,23.41-.89,46.81c-.36,18.68,3.32,42.74-11.57,57.25-13.85,13.5-36.52,16.22-54.5,10.92-16-4.73-26.75-24.51-27.38-40.66-.39-10-1-20-1.55-30q-1.15-22.59-2.34-45.18"/><path class="cls-4" d="M2092.44,805.13l-.72,112.94,27.9-.05,1.92-110.72Z"/><path class="cls-4" d="M2172.67,800.32l29.31,5-2.77,86,51.05,5.43-.5,20.7L2185.37,913,2171,900.68Z"/><path class="cls-4" d="M2319.47,828.44s-1.16,66.06-1.16,66.22c0,3.79,25.8-.91,28.29-2.14,16.17-8,20-30.22,13.08-45.52-8.41-18.6-22.95-17.81-40.21-18.56m42.15-21.28c19.75,9.47,31.19,31.24,30.31,54.69-1.25,33.6-28,58.27-60.92,61-3.35.28-39.52-1-39.52-.34q.65-59.47,1.3-118.94c.07-3.39,43.83-1.52,47.89-1.41a51.54,51.54,0,0,1,20.94,5"/><path class="cls-5" d="M1696.78,305c7.48.22,14.21-5.49,17.06-12.4s2.45-14.76,1-22.1-4.52-15.25-11.09-19c-6.29-3.57-11.27-2.08-15,1.89-7.41,7.78-10.24,25.11-9.4,32.61C1680.33,295.33,1687.39,304.72,1696.78,305Z"/><path class="cls-5" d="M2605.55,656.29l153.51-386.75-30.31-31.8-298.28,25.13-3.61-131.8-379.53,5.47-17.72,25.15L2010.2,136.5,492.05,134.87,499.29,43l-460,8.52L111.86,170l31.42,5.37-17.15,17.94L258.75,409.9,86.94,841.44l290.43-12.76-24.73,177.56,436.85-16.67,13.3-28.92,23.92,29.19L2372.8,999l5.48,96.89,446-31.49Zm-386.23-429.4a33,33,0,0,1,25.82-9.14c16.44,1.28,27.85,17.06,33.7,32.47,5,13.21,7.73,27.66,5.08,41.54s-11.3,27.05-24.22,32.77c-18.58,8.23-42-1.63-52.34-19.11C2195.54,285.47,2199.8,245.1,2219.32,226.89Zm-262.86.72,26.31-.44,2,108.34-29.41.69ZM1657.08,261c5.1-21.66,18.33-41.58,39.49-41,13.26.36,23.93,11.08,30.9,22.36,9.41,15.23,14.91,33.61,11.54,51.2s-17,33.73-34.65,36.69c-19.15,3.22-38.7-10-46.12-28C1653.92,291.84,1653.55,276,1657.08,261Zm-218.39-38-3.06,102.54-23.12,1.75-2-108.34ZM1121.8,235.06a42.82,42.82,0,0,1,28.11-17.71c12.53-2.18,26.39,2.21,34.16,12.27,5.54,7.16,7.65,16.36,8.74,25.34,2.4,19.64.13,41-12.15,56.51s-36.59,22.37-52.64,10.79c-9.23-6.66-14.15-17.88-16.39-29C1107.8,274.18,1110.4,250.93,1121.8,235.06ZM864.28,216.17l32.13-5.54L888.83,335.2l-27.14-10.33Zm-271.16-3.59A44.49,44.49,0,0,1,611.75,209c5.64.05,11.45,1.27,16,4.61a30.89,30.89,0,0,1,7.57,8.82c16.2,26.1,13.13,62.66-7.19,85.7-4.78,5.41-10.69,10.27-17.77,11.7-13.37,2.71-26.11-7.53-33.24-19.15C560.46,273.51,563,226,593.12,212.58Zm-223.7,253-1,326.58L134.38,813,300.22,425.34,192.77,235.1l187.4,4.16Zm460.87,489.9-23.68-26.11-32,27.24-354-2.67,11.38-571.55L2391.7,393.19l13.1,286.63,34.26,275.53ZM2432,1008.93l56-34.26L2451,676.3l-6.38-223.71L2624,450.3l23.92,29.18-82.21,182.94,188.09,360.74-325,35.82Z"/><path class="cls-5" d="M596.88,294.11c5.47,3.54,13.1,2.39,18.24-1.61s8.07-10.29,9.38-16.67a44.2,44.2,0,0,0-5.35-31.27c-2.82-4.71-6.75-9-11.91-10.89-7.5-2.71-12.37-.28-15.44,4.64-6.38,10.24-5,31.28-3.47,39.55C589.49,284.06,591.59,290.7,596.88,294.11Z"/><path class="cls-5" d="M1141.94,307.05c4.37,3.5,11,1.22,15.38-2.29,10.09-8.07,14.88-21.5,14.78-34.43,0-7.06-1.63-14.53-6.55-19.6a18.59,18.59,0,0,0-15.23-5.44,18.23,18.23,0,0,0-10.46,4.53c-12.32,11.21-7.4,39.54-1.44,52.19A13.59,13.59,0,0,0,1141.94,307.05Z"/><path class="cls-5" d="M2239.72,303.41c28.44,11.43,27.77-34.53,18.77-49-2.08-3.35-4.85-6.56-8.61-7.78-16.09-5.25-28.19,19-24.81,35.58C2226.74,290.32,2231.62,300.15,2239.72,303.41Z"/><path class="cls-2" d="M700.59,468.17c-.38-2.14-36.78-15.8-40.34-16.68-38.69-9.55-81.27-.88-105.08,33.17C528.93,522.19,542.3,574,582,597.1c18,10.46,47.16,11.82,60.88,30.16,9.58,12.82,5.11,27.48-7.89,35.65-16.11,10.11-32.13,4.79-48.45-1.52-14.28-5.52-28.63-10.9-42.94-16.35,0,0-1.51,51.9-1.51,51.93,0,1.79,26.43,11.33,29.37,12.54,33,13.52,70.73,12.61,103.95.35,29.32-10.83,32.29-45.83,33.23-73,.17-6.89-1.81-13.64-3.76-20.24-9.43-31.86-21.88-34-49.67-47.84-12.63-6.3-26-11.56-37.29-20.24-8.38-6.46-15.85-16.73-16-27.7-.33-20.53,24.4-29.07,38.22-28.28,8.44.47,38.22,13.36,57.71,25.06,0,0,2.63-47.3,2.76-49.41"/><path class="cls-2" d="M745.19,447.34,807.83,458c1.56.27-5.73,78.49-6.19,84.48-1.9,25.13-6.47,51.93-.51,76.85,5.07,21.18,34.86,61.95,55,29.13,18.26-29.77,17.85-78.56,19.48-112.21.25-5.08,2.27-77.32,3.76-77.43l55.48-4.22c.63,28.63,2.37,75.27,2.74,93.06,1.71,83.84-11.28,169.16-114,169.14-50.8,0-81.92-57.17-81.18-101.89l2.77-167.6"/><path class="cls-2" d="M979,723l-1-271.69,52.4-4,68.87,131.17,9.36-121.62,59,1.72-2.54,265.76-70.26.17-60.79-147.28,1.76,145.57Z"/><path class="cls-2" d="M1388.21,670.07q1.76,20.83,3.5,41.65a4.9,4.9,0,0,1-.53,3.37,4.79,4.79,0,0,1-2.68,1.48c-27.29,8.07-56,13.49-84.17,9.82-45.51-5.93-85.54-40.66-92.74-86.95-5.42-34.89-10.64-71.78,2.46-104.57,15-37.68,40-55.39,78.11-69.41,30.61-11.28,72.55-4.18,102.6,3.84l-2.64,50.25C1362,506,1285.89,497.41,1269.27,536.8c-7.94,18.79-6.93,46.44-6,66.42,2.57,56.58,76.31,86.69,125,66.85"/><path class="cls-2" d="M1758.3,602.87l34.84,9.75L1778,536.26ZM1751.08,467l56,2,75.84,263.93-55.47,4.21-21.5-79-52.63.9-25,79.39-62.58-7.64Z"/><path class="cls-2" d="M1535.45,677.74c12.71,2.17,25.54.43,36-8.78,15.46-13.53,20.56-36.77,20.16-56.48-.6-28.21-14.81-59.32-36.75-77.51-11.71-9.71-28.5-14.85-42.46-8.8-12.61,5.45-20.09,18.38-26,30.79-8,16.8-14.74,34.71-14.87,53.31-.18,25,13.19,44.2,34.41,56.3,8.85,5,19.11,9.41,29.44,11.17m-78.38-179.92a112.5,112.5,0,0,1,38.18-24.59,117.79,117.79,0,0,1,96.24,5.7c73.55,39,80.16,141.13,36.18,204.77-16.93,24.49-41.31,43.45-70.76,49.86-86.5,18.82-148.69-68-140.64-147,3.3-32.36,17.31-65.88,40.8-88.77"/><path class="cls-2" d="M2063.22,479.73s1.41,51.06,1.41,51.19c-15.55-7.5-44.77-14.42-53.29-14.71-16.84-.57-33.21.54-43.13,17.24-4.38,7.37-2.07,17.21,3.23,23.94,13.77,17.47,39.42,22.48,58.47,31.75,44.39,21.59,64.42,73.43,37.5,117.21-18,29.31-51.9,27.11-82.55,25.36-7.08-.4-69.2-7.29-69.32-13.5,0,0-.07-45.44-.07-45.91,14.34,5.1,36.31,9.21,44.21,10.58,18.34,3.21,24.6,4.75,42.55-.9,4.68-1.48,10.23-5.5,14-8.57,10-8.07,7.66-19.24.67-28.43-4.15-5.46-10.11-9.23-16.2-12.37-15-7.73-31.35-12.3-46.85-18.88-35.84-15.24-54.92-43.71-48.63-83.28,5.1-32.07,18.81-58.64,52.53-67,17.42-4.31,37-3.41,54.36.94,4.78,1.2,51,13,51.06,15.33"/><path class="cls-2" d="M2118.08,479.66l2.09,54.78,61.4-4.63,12.19,213.74,58.12-8.41-5.63-211.57,55.95-1.85,1.21-56.39Z"/><path class="cls-2" d="M573.46,871.57C584.31,866.86,591,854.82,591,843c0-28.71-20.38-32-42.74-36.61,0,0,0,67.85,0,68.21,0,.78,23.58-2.32,25.21-3M519,897.49s3.58-112,3.67-114.93c0-.3,36.77-.9,39.75-.78,25.22,1,51.79,19,54.59,45.45,4.22,39.65-11.78,57.68-48.59,66.51-3.63.87-49.62,10.39-49.42,3.75"/><path class="cls-2" d="M650.68,781l-5.08,96.49,8.24,20,68.95,3,3.34-24-50.65-.28,0-26.87,44.57,1.77,4.22-26.15-48.68-1.47-1.33-17.46,50.5-1.77,4.45-23.07Z"/><path class="cls-2" d="M751.12,783.75l27.73-2.11,25.46,76.6,21.32-72.91,25.77-.93L811.62,900.05l-25-2.23Z"/><path class="cls-2" d="M867.92,784.17l-.81,98.23L866.39,900l82.89,3-.61-21.65-55.23-6.14,2.39-22.91,48.44-1.62-2.59-20.47-42.51-1.93-1.88-24.66L948.11,806l1.75-17.7Z"/><path class="cls-2" d="M972.31,784.51l26.07,3.19-.55,87.87,51,4.4-.41,21.73-62.19-2.51-15.4-12.26Z"/><path class="cls-2" d="M1095.42,823.07a34.43,34.43,0,0,0-8.46,16.82c-4.54,23.8,18.32,50.74,42.42,42.94,15.21-4.91,28-18.51,29.36-34.43,2-23.31-17.22-33.23-36.88-35.56a31,31,0,0,0-26.44,10.23m-15.74-16.33c11.61-12.46,22.86-23.54,41.33-20.11,28.27,5.26,55.76,13.15,62.23,45.44,3,14.75,3.36,37.43-6.23,49.76-3.78,4.87-9.1,8.25-14.3,11.54-21.16,13.37-49.78,20.82-72.59,5.06a25.65,25.65,0,0,1-5-5.1c-9-11-18-22.69-21.28-36.54-4.85-20.66,3.38-36.65,15.88-50"/><path class="cls-2" d="M1237.8,810.84l.77,23.71c14.65,2.69,31.37,1.49,32.92-8.7s-12.89-15.78-33.69-15m31.34-15.38c12.08,4.56,22.63,16.31,23.35,21,4.65,30.65-28.55,42.93-55.21,41.92l-2.8,44.64-26.16-4.22s3.8-109.84,4.06-109.83c21.45.18,32.92-2.55,56.76,6.45"/><path class="cls-2" d="M1314.87,791.55l-1.37,117.9,17.54-.3,62.83-2.71-1.95-25.68-50.58.74-.77-23.71,49.79,2.42.18-24.81-45.68-2.73-2.2-15.33,52.71.13,3-28.13Z"/><path class="cls-2" d="M1461.52,817.61l2,26.7c.64,8.36,32.31-2.78,31.58-13.14-.86-12.13-33.54-12.2-33.61-13.56M1506,801.05c14.06,6.25,17.47,15.73,17.16,32-.06,2.93-4.23,25.89-24.86,29.78l30.08,45.77-29.71,3.29-24.93-42.54-11.31.86,2.25,43.23-27.09-3.11s-.45-117.93-.45-118c21.75.67,42.8,1.34,46.64,1.87,6.13.86,17.11,4.57,22.22,6.84"/><path class="cls-2" d="M1638.63,795.89l1.79,23.63c-21.64-4.13-52.63-17.71-55.65,1.12s49.44,20.53,57.89,50.27c5.56,19.64-7,32.3-22.63,33.85-5.83.58-44.15.26-63.6-7.57,0,0,1.37-20.67,1.44-21.76,0,.79,22.16,8.65,24.3,9,11.25,1.89,34.92,1.95,34.1-8.84-1.06-13.87-35.83-24.92-38.08-26.18-6-3.36-12.27-6.91-16.23-12.57-6.51-9.33-5-22.72,1.57-32,17-24,51.17-12.18,75.1-9"/><path class="cls-2" d="M1879.42,796.19s-.18,24.8-.19,24.82c.83-4.17-40.79-5.45-45.93-3.49-15.79,6-30.7,28.63-25.5,45.74,3.16,10.39,15.29,20,24.73,23,2,.66,23.53,1.84,23.65-1.53l.65-18.65-27-2.08-.54-20.63,55,3.06s1,53.62,1,53.66c-.23,3.84-29.77,8.16-33.15,8.71a59.14,59.14,0,0,1-49.58-15.42c-14.59-13.92-26.69-42.12-19.7-62.06,6-17.27,28.85-36.13,46.27-40.47,4.46-1.12,50.36.86,50.33,5.31"/><path class="cls-2" d="M1936.4,798.07l30.34,4.93q-.2,17.75-.35,35.49c-.11,12.24-1.59,24.83,1.18,36.9,3,13,17.63,20.17,28.72,11.25s12-25.55,12.67-38.62c.2-4-.79-49.18-1.21-49.17l26.87,0q-.45,23.42-.89,46.82c-.36,18.67,3.32,42.73-11.57,57.24-13.85,13.5-36.51,16.22-54.5,10.92-16-4.73-26.75-24.51-27.38-40.66-.38-10-1-20-1.55-30q-1.15-22.59-2.33-45.17"/><path class="cls-2" d="M2086.05,795.74l-.72,112.94,27.9,0,1.92-110.71Z"/><path class="cls-2" d="M2166.28,790.93l29.31,5-2.76,86,51,5.43-.49,20.7-64.4-4.41-14.38-12.34Z"/><path class="cls-2" d="M2313.08,819.05s-1.16,66.06-1.16,66.22c0,3.79,25.8-.91,28.29-2.14,16.17-8,20-30.22,13.08-45.52-8.41-18.59-22.94-17.81-40.21-18.56m42.15-21.28c19.75,9.48,31.19,31.24,30.32,54.69-1.26,33.6-28,58.27-60.93,61-3.35.27-39.52-1-39.52-.34q.65-59.49,1.3-118.95c.07-3.39,43.83-1.52,47.89-1.41a51.54,51.54,0,0,1,20.94,5"/></svg>