<?xml version="1.0" encoding="utf-8"?>
<!-- Generator: Adobe Illustrator 22.1.0, SVG Export Plug-In . SVG Version: 6.00 Build 0)  -->
<svg version="1.1" id="Layer_2_1_" xmlns="http://www.w3.org/2000/svg" xmlns:xlink="http://www.w3.org/1999/xlink" x="0px" y="0px"
	 viewBox="0 0 505.8 452.3" style="enable-background:new 0 0 505.8 452.3;" xml:space="preserve">
<style type="text/css">
	.st0{fill:#5A9191;}
	.st1{fill:#81D0D3;}
	.st2{fill:#76BDBC;}
	.st3{fill:#D6562B;}
	.st4{fill:#231F20;fill-opacity:0.3;}
	.st5{fill:#895881;}
	.st6{fill:#C6A9B5;}
	.st7{fill:#FFF200;}
	.st8{fill:#F9A01B;}
	.st9{fill:#FFFFFF;}
	.st10{fill:#B2D235;}
	.st11{fill:#F7F2DA;}
	.st12{fill:#DF8B26;}
	.st13{fill:#E4D41D;}
	.st14{fill:#A4BF3A;}
</style>
<title>bouy</title>
<polygon class="st0" points="94.7,8.9 104.5,0 393.6,2.2 452.9,297.1 463.6,350.8 470.9,371.2 245.9,452.3 21.6,371.2 23,350.5 
	29.3,348.2 39,293.7 "/>
<polygon class="st1" points="102.2,15.8 113.5,7.6 386.7,9.1 444.1,293.9 48.2,293.1 "/>
<polygon class="st2" points="387.8,15.8 386.7,9.1 113.5,7.6 102.2,15.8 48.2,293.1 53.7,293.1 106.2,18.7 114.8,12.1 "/>
<path class="st3" d="M209.2,293.7L349,294c0,0,4.6-15.2,4.9-25.3s-8.3-31.5-8.3-31.5L225,227.7c0,0-13.5,12.1-16.6,21
	s-5.2,18.6-4.3,26.4S209.2,293.7,209.2,293.7z"/>
<polygon class="st4" points="85.5,58 52.2,225.4 129.9,227.7 131.1,225 133.4,227.7 448.1,250.6 409.6,82.7 "/>
<polygon class="st5" points="2.3,38.8 89,38.8 85,60.6 366.1,82.3 369.3,87.2 373,82.8 424.2,87 427.1,112.3 497.7,111.1 
	502.9,117.4 469,186.9 505.8,259.8 446.6,265 442.6,247.2 134.9,223.6 130.9,217.9 128,223.1 42.5,219.1 54,187.5 0,185.8 
	37.9,108.3 16.4,66.3 19.8,63.2 14.1,61.8 "/>
<polygon class="st6" points="28.1,75 70.6,73.2 66.6,123.2 52.8,180.6 9.2,181.2 45.3,111.7 "/>
<polygon class="st6" points="82.7,106.5 57.4,211 125.7,216.8 132,212.2 136.1,217.3 445.5,239.1 431.5,188.4 423.5,137 "/>
<polygon class="st6" points="475.3,149 479.3,154.8 461.5,187.5 494.8,254.6 454.1,257.9 452.9,247.2 458.7,243.2 440.1,188.4 
	434.2,148.4 "/>
<polygon class="st7" points="31.6,355.9 30.8,368.1 140.3,406.4 351.5,404.9 462.5,368.9 457.9,355.1 "/>
<polygon class="st8" points="45.1,300.9 38.2,348.2 454.9,346.7 442.6,301.5 "/>
<path class="st4" d="M195.8,244.2l3.7,0.3l3,4.3c0,0,13-0.9,16.3,1.1s6.2,6.8,6.2,6.8l-3.4,0.1c-0.9-2-2.6-3.6-4.6-4.5
	c-3.3-1.1-15.9,2.4-15.9,2.4l-2.9-4l-2.6,2.7c0,0-15.3-2.2-17.6-1.1s-4.4,6-4.4,6l-2.4-0.4c0,0,2.9-7.3,6-8.9s15.9,0.3,15.9,0.3
	L195.8,244.2z"/>
<path class="st4" d="M256.8,261.1l5.5-0.7l3.7,6.3l9.1-0.2c5.1-0.1,10.7-0.5,15.6,1.2c6.3,2.1,9,7.3,10.9,13.3l-4.5-0.6
	c-1.3-1.9-2.7-3.7-4.3-5.4c-2.1-1.7-4.8-2.3-7.5-2.7c-3.2-0.5-6.1,0.4-9.2,0.9c-3.8,0.6-7.5,1.6-11.3,2.1l-4.6-6.6l-5,5.6l-11.7-1.2
	c-3.5-0.4-7.8-1.3-11.4-0.6c-4.2,0.8-8,4-9.2,7l-4.2-0.2c2.2-3.6,4.9-6.8,8.2-9.4c3.6-1.5,7.5-2.9,15.6-2.6l9.9,0.4L256.8,261.1z"/>
<path class="st9" d="M195.8,241.9l3.7,0.3l3,4.3c0,0,13-0.9,16.3,1.1s6.2,6.8,6.2,6.8l-3.4,0.1c-0.9-2-2.6-3.6-4.6-4.5
	c-3.3-1.1-15.9,2.4-15.9,2.4l-2.9-4l-2.6,2.7c0,0-15.3-2.2-17.6-1.1s-4.4,6-4.4,6l-2.4-0.4c0,0,2.9-7.3,6-8.9s15.9,0.3,15.9,0.3
	L195.8,241.9z"/>
<path class="st9" d="M256.8,258.8l5.5-0.7l3.7,6.3l9.1-0.2c5.1-0.1,10.7-0.5,15.6,1.2c6.3,2.1,9,7.3,10.9,13.3l-4.5-0.6
	c-1.3-1.9-2.8-3.7-4.3-5.4c-2.1-1.7-4.8-2.3-7.5-2.7c-3.2-0.5-6.1,0.4-9.2,0.9c-3.8,0.6-7.5,1.6-11.3,2.1l-4.6-6.6l-5,5.6l-11.7-1.2
	c-3.5-0.4-7.8-1.3-11.4-0.6c-4.2,0.8-8,4-9.2,7l-4.2-0.3c2.2-3.6,4.9-6.8,8.2-9.4c3.6-1.5,7.5-2.9,15.6-2.6l9.9,0.4L256.8,258.8z"/>
<polygon class="st6" points="150.1,80.7 148.1,100.8 153,103.1 156.1,80.1 "/>
<path class="st6" d="M102.6,76.4c1.1-0.4,2.3-0.5,3.5-0.4c1.1,0,2.1,0.4,2.9,1.1c0.5,0.5,1,1.1,1.3,1.7c2.6,5.3,1.6,11.6-2.5,15.8
	c-0.9,1-2.1,1.7-3.4,1.9c-2.5,0.3-4.7-1.8-5.9-4C95.7,87.2,96.8,78.5,102.6,76.4z M102,81.2c-1.3,1.8-1.4,5.7-1.2,7.3
	c0,1.2,0.5,2.3,1.3,3.1c1,0.7,2.4,0.7,3.4,0c1-0.7,1.7-1.8,2-3c0.5-2,0.4-4-0.6-5.9c-0.4-0.9-1.1-1.7-2.1-2.2
	C103.9,79.9,102.6,80.2,102,81.2z"/>
<path class="st6" d="M199.6,90.7c0.6-0.4,1.3-0.7,2-0.7c1.1,0,2.1,0.4,2.8,1.2c0.8,1.1,1.1,2.4,0.9,3.7c-0.1,2.4-1.3,4.7-3.2,6.2
	c-0.9,0.6-2.1,0.9-2.9,0.2c-0.3-0.3-0.5-0.6-0.6-1C197.7,98,197.2,92.6,199.6,90.7z M196.5,87.7c-2.3,2.8-3.1,7-2.7,10.6
	c0.1,2.1,1.1,4.2,2.6,5.6c2.8,2.4,7.4,1.4,9.9-1.3s3.2-6.6,3-10.3c0-1.7-0.4-3.4-1.3-4.8c-1.4-2-3.8-3-6.1-2.8
	C199.7,85.1,197.8,86.1,196.5,87.7L196.5,87.7z"/>
<polygon class="st6" points="252.9,89 258,90.2 256,109.1 251.7,109.1 "/>
<path class="st6" d="M303.1,99.3c0.8-0.8,2-0.8,2.8-0.1c1.1,0.9,1.7,2.3,1.8,3.7c0.2,1.4,0.1,2.8-0.5,4.1c-0.6,1.3-1.9,2.1-3.3,2.1
	c-1.7-0.2-2.9-2-3-3.8C300.9,103.8,301.7,100.6,303.1,99.3z M297.1,100.3c-0.9,2.5-1,5.1-0.4,7.7c1.1,3.4,4.5,6.2,8.1,5.8
	c3.3-0.3,6.1-3.1,6.9-6.3c0.7-3.3,0.2-6.7-1.4-9.6c-1.1-2.2-3-4.3-5.4-4.6C301.2,92.8,298.4,96.3,297.1,100.3L297.1,100.3z"/>
<polygon class="st6" points="348.7,97.9 353.6,98.2 352.5,118.3 347,118 "/>
<path class="st6" d="M390.2,103.3c1.4-1.1,3.2-1.6,4.9-1.3c3,0.5,4.9,3.6,5.8,6.5c0.8,2.5,1,5.2,0.4,7.8c-0.6,2.6-2.5,4.7-5,5.7
	c-3.5,1.3-7.8-0.9-9.4-4.3C384.9,113.8,386.3,106.3,390.2,103.3z M390.5,113.6c0.2,1.5,1,3.4,2.4,4.1c5.1,2.5,5.6-6,4.2-8.8
	c-0.3-0.7-0.8-1.2-1.5-1.6C392.6,106.1,390,110.5,390.5,113.6z"/>
<polygon class="st10" points="161.9,410.8 162.3,417.6 246.7,445.4 340.6,411.5 "/>
<path class="st5" d="M121.2,127.6c0-0.4-6.6-3.4-7.2-3.7c-7-2.3-15-1.3-19.9,4.7c-5.4,6.6-3.7,16.4,3.4,21.2
	c3.2,2.2,8.6,2.9,10.8,6.4c1.6,2.5,0.6,5.2-2,6.5c-3.1,1.6-6,0.4-9-1c-2.6-1.2-5.2-2.4-7.7-3.6l-1,9.6c0,0.3,4.7,2.5,5.3,2.7
	c6,2.9,12.9,3.5,19.3,1.6c5.6-1.6,6.6-8,7.2-13.1c0.1-1.3-0.1-2.6-0.4-3.8c-1.3-6-3.6-6.6-8.5-9.6c-2.3-1.2-4.6-2.6-6.6-4.3
	c-1.6-1.3-2.5-3.3-2.6-5.4c0.2-3.8,4.9-5,7.5-4.7c1.6,0.2,6.9,3,10.3,5.4C120,136.7,121.1,128,121.2,127.6z"/>
<path class="st5" d="M129.7,124.3l11.4,2.9c0.3,0.1-2.2,14.5-2.3,15.6c-0.7,4.6-1.9,9.5-1.2,14.2c0.6,4,5.6,12,9.8,6.2
	c3.8-5.2,4.4-14.3,5.2-20.5c0.1-0.9,1.5-14.3,1.8-14.3h10.3c-0.3,5.3-0.6,14-0.8,17.3c-0.9,15.6-4.5,31.2-23.5,29.7
	c-9.4-0.7-14.4-11.7-13.6-20L129.7,124.3z"/>
<polygon class="st5" points="169.2,178.7 172.8,128.4 182.6,128.4 193.5,153.6 196.9,131.2 207.8,132.4 203.6,181.6 190.6,180.6 
	181.4,152.5 179.7,179.4 "/>
<path class="st5" d="M245.7,174.6l0.1,7.8c0,0.2,0,0.4-0.1,0.6c-0.1,0.1-0.3,0.2-0.5,0.2c-5.2,1.1-10.6,1.7-15.7,0.6
	c-8.4-1.7-15.3-8.7-16-17.4c-0.5-6.5-1-13.4,1.9-19.3c3.3-6.8,8.2-9.7,15.4-11.8c5.8-1.6,13.5,0.2,18.9,2.2l-1.2,9.3
	c-5.4-2.9-19.4-5.6-23,1.5c-1.7,3.4-1.9,8.5-2.1,12.2C223.2,171,236.4,177.6,245.7,174.6z"/>
<path class="st5" d="M315.7,142.1l10.3,1.1l10.3,49.9h-10.3l-2.9-14.9l-9.8-0.6l-5.7,14.4l-11.5-2.3L315.7,142.1z M315.2,167.4
	l6.3,2.3l-1.7-14.4L315.2,167.4z"/>
<path class="st5" d="M260.9,143.7c2.2-1.8,4.7-3.2,7.4-4c6-1.8,12.4-0.9,17.7,2.4c13.1,8.2,12.9,27.3,3.8,38.4
	c-3.4,4.4-8.3,7.3-13.8,8.2c-16.3,2.3-26.6-14.7-24-29.2C253.1,153.4,256.2,147.8,260.9,143.7z M272.9,178.1
	c2.3,0.7,4.8,0.3,6.8-1.1c3-2.3,4.3-6.5,4.5-10.2c0.2-5.5-1.8-10.9-5.7-14.8c-2-2-5.1-3.1-7.7-2.2c-2.4,0.8-4,3.1-5.2,5.3
	c-1.9,2.9-3,6.2-3.5,9.7c-0.4,4.6,1.8,8.4,5.6,10.9C269.2,176.8,271,177.6,272.9,178.1L272.9,178.1z"/>
<path class="st5" d="M373.4,148.9c0,0-0.5,9.5-0.5,9.5c-3-1.6-6.3-2.8-9.7-3.5c-3.1-0.3-6.2-0.4-8.2,2.6c-0.8,1.4-0.7,3.2,0.3,4.5
	c2.3,3.4,7,4.7,10.4,6.7c7.9,4.6,10.9,14.5,5.3,22.2c-3.8,5.2-10,4.3-15.6,3.5c-1.3-0.2-12.7-2.3-12.6-3.5c0,0,0.6-8.4,0.6-8.5
	c2.6,1,5.3,1.9,8,2.6c3.4,0.9,4.5,1.2,7.9,0.4c1-0.3,1.9-0.8,2.7-1.4c2-1.4,1.7-3.4,0.5-5.2c-0.7-1-1.7-1.9-2.8-2.5
	c-2.7-1.6-5.6-2.7-8.4-4.2c-6.4-3.3-9.6-8.9-7.8-16.1c1.4-5.9,4.3-10.6,10.7-11.7c3.4-0.5,6.8-0.2,10,0.9
	C365,145.6,373.4,148.4,373.4,148.9z"/>
<polygon class="st5" points="383.5,149.6 383.1,159.8 394.6,159.8 393.8,199.6 404.7,198.8 406.6,159.6 417,160 418,149.6 "/>
<path class="st5" d="M81.5,204.5l2.3-21.2c0-0.1,6.8,0.4,7.4,0.4c4.7,0.6,9.3,4.2,9.5,9.2c0.2,7.4-3,10.5-9.9,11.6
	C90,204.6,81.4,205.7,81.5,204.5z M91.9,200.5c2.1-0.8,3.5-2.8,3.6-5c0.4-5.3-3.3-6.2-7.4-7.4l-1,12.6
	C88.8,200.8,90.4,200.7,91.9,200.5L91.9,200.5z"/>
<polygon class="st5" points="107.5,184.8 105.2,202.6 106.5,206.4 119.2,207.9 120.2,203.6 110.8,202.8 111.2,197.8 119.4,198.8 
	120.6,194 111.6,193 111.6,189.8 120.9,190.2 122.1,185.9 "/>
<polygon class="st5" points="126.1,186.7 131.3,186.7 134.9,201.2 139.9,188.1 144.7,188.2 135.7,209.1 131.1,208.3 "/>
<polygon class="st5" points="147.7,188.4 146.2,206.6 145.8,209.9 161.1,211.6 161.3,207.6 151.2,205.7 151.9,201.4 160.9,201.8 
	160.7,198 152.9,197.1 152.9,192.4 162.3,193.6 162.8,190.4 "/>
<polygon class="st5" points="167.1,190 171.8,190.9 170.5,207.2 179.9,208.7 179.5,212.7 168,211.4 165.3,208.9 "/>
<path class="st5" d="M186.6,195.6c2.3-2.1,4.6-4,7.9-3.1c5.2,1.4,10.1,3.2,10.9,9.3c0.3,2.8,0.1,7-1.9,9.1c-0.8,0.8-1.8,1.5-2.8,1.9
	c-4.1,2.2-9.5,3.2-13.5-0.1c-0.3-0.3-0.6-0.6-0.9-1c-1.5-2.2-3-4.5-3.4-7.1C182.4,200.7,184.1,197.9,186.6,195.6z M189.3,198.8
	c-0.9,0.8-1.5,1.9-1.8,3c-1.2,4.3,2.7,9.6,7.2,8.5c3-0.7,5.3-3,5.9-6c0.7-4.3-2.7-6.4-6.3-7.1C192.5,196.9,190.6,197.5,189.3,198.8z
	"/>
<path class="st5" d="M221.9,196.2c2.2,1,4,3.3,4,4.2c0.4,5.7-5.9,7.5-10.8,7l-1.1,8.2l-4.8-1.1c0,0,2.2-20.3,2.3-20.3
	C215.4,194.5,217.6,194.2,221.9,196.2z M215.9,198.6l-0.2,4.4c2.7,0.7,5.8,0.7,6.2-1.1S219.7,198.7,215.9,198.6L215.9,198.6z"/>
<polygon class="st5" points="230.4,196.1 228.5,217.9 231.7,218.1 243.4,218.5 243.4,213.7 234,213.1 234.2,208.7 243.4,209.9 
	243.8,205.3 235.4,204.1 235.2,201.2 244.9,202 245.9,196.9 "/>
<path class="st5" d="M265.6,200.5c2.5,1.4,3,3.2,2.7,6.2c0,0.5-1.1,4.7-5,5.2l4.9,8.9l-5.5,0.2l-4-8.2h-2.1l-0.2,8l-5-1L253,198
	c4,0.4,7.9,0.9,8.6,1C263,199.4,264.4,199.9,265.6,200.5z M257.2,203v5c0,1.6,6-0.1,6-2C263.2,203.7,257.2,203.2,257.2,203z"/>
<path class="st5" d="M290.3,201.4v4.4c-4-1.1-9.5-4-10.3-0.6s8.9,4.5,10,10.1c0.7,2.5-0.7,5.1-3.1,5.8c-0.5,0.1-1,0.2-1.5,0.2
	c-1.1,0-8.2-0.6-11.7-2.3l0.6-4c1.4,0.8,2.9,1.4,4.4,2c2.1,0.5,6.4,0.9,6.4-1.1c0-2.6-6.3-5.1-6.7-5.4c-1.1-0.6-2.1-1.5-2.8-2.6
	c-1-1.9-0.7-4.3,0.7-5.9C279.7,197.9,285.9,200.5,290.3,201.4z"/>
<path class="st5" d="M334.9,204.9l-0.4,4.6c0.2-0.8-7.5-1.6-8.5-1.3c-3,0.9-6.1,4.9-5.4,8.1c0.7,2.1,2.2,3.8,4.3,4.6
	c0.4,0.1,4.3,0.7,4.4,0.1l0.4-3.4l-5-0.8l0.2-3.8l10.1,1.3l-0.6,10c-0.1,0.7-5.6,1.1-6.3,1.1c-3.4,0.3-6.7-1-9-3.6
	c-2.5-2.8-4.4-8.2-2.8-11.8c1.4-3.1,5.9-6.3,9.1-6.8C326.5,203.1,334.9,204.1,334.9,204.9z"/>
<path class="st5" d="M345.4,206l5.5,1.3l-0.6,6.6c-0.2,2.3-0.6,4.6-0.3,6.9c0.2,1.8,1.8,3.2,3.6,3c0.5,0,1.1-0.2,1.5-0.5
	c2.2-1.5,2.6-4.6,2.9-7c0.1-0.7,0.5-9.1,0.5-9.1l5,0.4l-0.8,8.7c-0.3,3.4,0,8-3,10.4c-2.8,2.3-7,2.5-10.2,1.2
	c-2.9-1.1-4.6-4.9-4.5-7.9c0.1-1.9,0.1-3.7,0.1-5.6L345.4,206z"/>
<polygon class="st5" points="373.1,207.7 371.4,228.6 376.6,229 378.5,208.5 "/>
<polygon class="st5" points="388.1,207.9 393.4,209.3 391.7,225.2 401.1,226.9 400.7,230.7 388.8,229 386.3,226.5 "/>
<path class="st5" d="M423,211.9c3.6,2.2,5.5,6.4,4.9,10.6c-0.7,6.2-6,10.4-12.1,10.4c-0.6,0-7.3-0.7-7.3-0.6
	c0.7-7.3,1.3-14.7,1.9-22c0.1-0.6,8.1,0.3,8.9,0.4C420.5,210.8,421.8,211.2,423,211.9z M414.9,215.2c0,0-1.1,12.2-1.1,12.2
	c0,0.7,4.8,0.2,5.3,0c3.1-1.2,4.1-5.3,3.1-8.2C420.7,215.7,418,215.6,414.9,215.2L414.9,215.2z"/>
<path class="st11" d="M118.9,125.3c0-0.4-6.6-3.4-7.2-3.7c-7-2.3-15-1.3-19.9,4.7c-5.4,6.6-3.6,16.4,3.4,21.2
	c3.2,2.2,8.6,2.9,10.8,6.4c1.6,2.5,0.6,5.2-2,6.5c-3.1,1.6-6,0.4-9-1c-2.6-1.2-5.1-2.4-7.7-3.6l-1,9.6c0,0.3,4.7,2.5,5.3,2.7
	c6,2.9,12.9,3.4,19.2,1.5c5.6-1.6,6.6-8,7.2-13.1c0.1-1.3-0.1-2.6-0.4-3.8c-1.3-6-3.6-6.6-8.5-9.6c-2.3-1.2-4.5-2.6-6.5-4.2
	c-1.6-1.3-2.5-3.3-2.6-5.4c0.2-3.8,4.9-5,7.5-4.7c1.6,0.2,6.9,3,10.3,5.5C117.7,134.4,118.8,125.7,118.9,125.3z"/>
<path class="st11" d="M127.4,122l11.4,2.9c0.3,0.1-2.2,14.4-2.3,15.6c-0.7,4.6-1.9,9.5-1.2,14.2c0.6,4,5.6,12,9.8,6.2
	c3.8-5.3,4.4-14.3,5.2-20.5c0.1-0.9,1.5-14.3,1.8-14.3h10.4c-0.3,5.3-0.6,14-0.8,17.3c-0.9,15.6-4.5,31.2-23.5,29.7
	c-9.4-0.7-14.4-11.7-13.6-20L127.4,122z"/>
<polygon class="st11" points="166.9,176.4 170.5,126.1 180.3,126.1 191.2,151.3 194.6,128.9 205.5,130.1 201.3,179.2 188.3,178.3 
	179.1,150.2 177.4,177.1 "/>
<path class="st11" d="M243.4,172.3l0.1,7.8c0,0.2,0,0.4-0.1,0.6c-0.1,0.1-0.3,0.2-0.5,0.2c-5.2,1.1-10.6,1.7-15.7,0.6
	c-8.3-1.7-15.3-8.7-15.9-17.4c-0.5-6.5-1-13.4,1.9-19.3c3.3-6.8,8.2-9.7,15.4-11.8c5.8-1.7,13.5,0.2,18.9,2.1
	c-0.4,3.1-0.8,6.2-1.2,9.3c-5.4-2.9-19.4-5.6-23,1.5c-1.7,3.4-1.9,8.5-2,12.2C220.9,168.7,234.1,175.3,243.4,172.3z"/>
<path class="st11" d="M313.4,139.8l10.3,1.2l10.3,49.9h-10.3l-2.9-14.9l-9.8-0.6l-5.7,14.4l-11.5-2.3L313.4,139.8z M312.9,165.1
	l6.3,2.3l-1.7-14.4L312.9,165.1z"/>
<path class="st11" d="M258.6,141.4c2.2-1.8,4.7-3.2,7.4-4c6-1.8,12.4-0.9,17.7,2.4c13.1,8.3,12.9,27.3,3.8,38.4
	c-3.4,4.4-8.3,7.3-13.8,8.2c-16.3,2.3-26.6-14.7-24-29.2C250.8,151.1,253.9,145.5,258.6,141.4z M270.6,175.8
	c2.3,0.7,4.8,0.3,6.8-1.1c3.1-2.3,4.3-6.5,4.5-10.2c0.2-5.5-1.8-10.9-5.7-14.9c-2-2-5.1-3.1-7.7-2.2c-2.4,0.8-4,3.1-5.2,5.3
	c-1.9,2.9-3.1,6.2-3.5,9.7c-0.4,4.6,1.8,8.4,5.6,10.9C266.9,174.5,268.6,175.3,270.6,175.8L270.6,175.8z"/>
<path class="st11" d="M371.1,146.6c0,0-0.5,9.5-0.5,9.5c-3-1.6-6.3-2.8-9.7-3.5c-3.1-0.4-6.1-0.4-8.2,2.6c-0.8,1.4-0.7,3.2,0.3,4.5
	c2.3,3.4,7,4.7,10.4,6.7c7.9,4.6,10.9,14.5,5.3,22.2c-3.8,5.2-10,4.3-15.6,3.5c-1.3-0.2-12.7-2.3-12.6-3.5c0,0,0.6-8.4,0.6-8.5
	c2.6,1,5.3,1.9,8,2.6c3.4,0.9,4.5,1.2,7.9,0.4c1-0.3,1.9-0.8,2.7-1.4c2-1.4,1.7-3.5,0.5-5.3c-0.7-1-1.7-1.9-2.8-2.5
	c-2.7-1.6-5.6-2.7-8.4-4.2c-6.4-3.3-9.5-8.9-7.8-16.1c1.4-5.9,4.3-10.6,10.7-11.7c3.4-0.5,6.8-0.2,10,0.9
	C362.7,143.3,371.1,146.2,371.1,146.6z"/>
<polygon class="st11" points="381.2,147.3 380.8,157.5 392.3,157.5 391.5,197.3 402.4,196.5 404.3,157.3 414.7,157.7 415.7,147.3 
	"/>
<path class="st11" d="M79.2,202.2l2.3-21.2c0,0,6.8,0.4,7.4,0.4c4.7,0.6,9.3,4.2,9.5,9.2c0.2,7.4-3,10.5-9.9,11.6
	C87.7,202.3,79.1,203.4,79.2,202.2z M89.7,198.2c2.1-0.8,3.5-2.8,3.7-5c0.4-5.3-3.3-6.2-7.4-7.4l-1,12.6
	C86.5,198.5,88.1,198.4,89.7,198.2L89.7,198.2z"/>
<polygon class="st11" points="105.2,182.5 102.9,200.3 104.2,204.1 116.9,205.7 117.9,201.2 108.5,200.5 108.9,195.5 117.1,196.5 
	118.3,191.7 109.3,190.7 109.3,187.5 118.6,187.9 119.8,183.6 "/>
<polygon class="st11" points="123.8,184.4 129,184.4 132.6,199 137.6,185.8 142.4,185.9 133.4,206.8 128.8,206 "/>
<polygon class="st11" points="145.4,186.1 143.9,204.3 143.5,207.6 158.8,209.3 159,205.3 148.9,203.4 149.6,199.1 158.6,199.5 
	158.4,195.7 150.6,194.8 150.6,190.2 160,191.3 160.6,188.1 "/>
<polygon class="st11" points="164.8,187.7 169.5,188.6 168.2,204.9 177.6,206.4 177.2,210.4 165.7,209.1 163,206.6 "/>
<path class="st11" d="M184.3,193.3c2.3-2.1,4.6-4,7.9-3.1c5.2,1.4,10.1,3.2,10.9,9.3c0.3,2.8,0.1,7-1.9,9.1
	c-0.8,0.8-1.8,1.5-2.8,1.9c-4.1,2.2-9.5,3.1-13.5-0.1c-0.3-0.3-0.6-0.6-0.9-1c-1.5-2.2-3-4.5-3.4-7.1
	C180.1,198.4,181.8,195.6,184.3,193.3z M187,196.5c-0.9,0.8-1.5,1.9-1.8,3c-1.2,4.3,2.7,9.6,7.2,8.6c3-0.7,5.3-3,5.9-6
	c0.7-4.3-2.7-6.4-6.3-7.1C190.2,194.7,188.4,195.2,187,196.5L187,196.5z"/>
<path class="st11" d="M219.6,193.9c2.2,1,4,3.3,4,4.2c0.4,5.7-5.9,7.6-10.8,7l-1.1,8.2l-4.8-1.1c0,0,2.2-20.3,2.3-20.3
	C213.1,192.2,215.3,191.9,219.6,193.9z M213.6,196.3l-0.2,4.4c2.7,0.7,5.8,0.7,6.2-1.1S217.4,196.4,213.6,196.3L213.6,196.3z"/>
<polygon class="st11" points="228.1,193.8 226.2,215.6 229.4,215.8 241.1,216.2 241.1,211.4 231.7,210.8 231.9,206.4 241.1,207.6 
	241.5,203 233.1,201.8 232.9,199 242.6,199.7 243.6,194.6 "/>
<path class="st11" d="M263.4,198.2c2.5,1.4,3,3.2,2.7,6.2c0,0.6-1.1,4.7-5,5.2l4.9,8.9l-5.5,0.2l-4-8.2h-2.1l-0.2,8l-5-1
	c0,0,1.6-21.8,1.6-21.9c4,0.4,7.9,0.9,8.6,1C260.7,197,262.1,197.5,263.4,198.2z M254.9,200.7v5c0,1.6,6-0.1,6-2
	C260.9,201.4,254.9,201,254.9,200.7L254.9,200.7z"/>
<path class="st11" d="M288,199.1v4.4c-4-1.1-9.5-4-10.3-0.6s8.9,4.5,10,10.1c0.7,2.5-0.7,5.1-3.2,5.8c-0.5,0.1-1,0.2-1.5,0.2
	c-1.1,0-8.2-0.6-11.7-2.3l0.6-4c1.4,0.8,2.9,1.4,4.4,2c2,0.5,6.4,0.9,6.4-1.2c0-2.6-6.3-5.1-6.7-5.4c-1.1-0.6-2.1-1.5-2.8-2.6
	c-1-1.9-0.7-4.3,0.8-5.9C277.4,195.6,283.6,198.2,288,199.1z"/>
<path class="st11" d="M332.6,202.6l-0.4,4.6c0.2-0.8-7.5-1.6-8.5-1.3c-3,0.9-6.1,4.9-5.4,8.1c0.7,2.1,2.2,3.8,4.2,4.6
	c0.4,0.1,4.3,0.7,4.4,0l0.4-3.4l-5-0.8l0.2-3.8l10.2,1.4l-0.6,10c-0.1,0.7-5.6,1.1-6.3,1.1c-3.4,0.3-6.7-1-9-3.6
	c-2.5-2.8-4.4-8.2-2.8-11.8c1.4-3.1,5.9-6.3,9.1-6.9C324.2,200.8,332.6,201.8,332.6,202.6z"/>
<path class="st11" d="M343.1,203.7l5.5,1.3l-0.6,6.6c-0.2,2.3-0.6,4.6-0.3,6.9c0.2,1.8,1.8,3.2,3.6,3c0.5,0,1.1-0.2,1.5-0.5
	c2.2-1.5,2.6-4.6,2.9-7c0.1-0.7,0.5-9.1,0.5-9.1l5,0.4l-0.8,8.7c-0.3,3.5,0,8-3,10.4c-2.8,2.3-7,2.5-10.2,1.3
	c-2.9-1.1-4.6-4.9-4.5-7.9c0.1-1.9,0.1-3.7,0.1-5.6L343.1,203.7z"/>
<polygon class="st11" points="370.8,205.4 369.1,226.3 374.3,226.7 376.2,206.2 "/>
<polygon class="st11" points="385.8,205.7 391.1,207 389.4,222.9 398.8,224.6 398.4,228.4 386.5,226.7 384,224.2 "/>
<path class="st11" d="M420.7,209.6c3.6,2.2,5.5,6.4,4.8,10.6c-0.7,6.2-6,10.4-12.1,10.4c-0.6,0-7.3-0.7-7.3-0.6l2-22
	c0.1-0.6,8.1,0.3,8.9,0.4C418.2,208.5,419.5,208.9,420.7,209.6z M412.6,212.9c0,0-1.1,12.2-1.1,12.2c0,0.7,4.8,0.2,5.3,0
	c3.1-1.3,4.1-5.3,3.1-8.2C418.5,213.4,415.7,213.3,412.6,212.9z"/>
<polygon class="st12" points="49.8,306.9 444.6,308.8 442.6,301.5 45.1,300.9 38.2,348.2 44.2,348.2 "/>
<polygon class="st13" points="36.6,360.8 36.2,369.6 30.8,368.1 31.6,355.9 457.9,355.1 460.2,362.1 "/>
<polygon class="st14" points="167.1,414.4 167.1,419 162.3,417.6 161.9,410.8 340.6,411.5 331.4,415 "/>
</svg>
