<svg xmlns="http://www.w3.org/2000/svg" viewBox="0 0 512 512"><defs><style>.cls-1{fill:#5a9191;}.cls-2{fill:#81d0d3;}.cls-3{fill:#76bdbc;}.cls-4{fill:#d6562b;}.cls-5{fill:#231f20;fill-opacity:0.3;}.cls-6{fill:#895881;}.cls-7{fill:#c6a9b5;}.cls-8{fill:#fff200;}.cls-9{fill:#fff;}.cls-10{fill:#f9a01b;}.cls-11{fill:#df8b26;}.cls-12{fill:#b2d235;}.cls-13{fill:#e4d41d;}.cls-14{fill:#a4bf3a;}.cls-15{fill:#010101;opacity:0.5;isolation:isolate;}.cls-16{fill:#d7572b;}.cls-17{fill:#f7f2da;}</style></defs><title>junior</title><g id="Layer_2" data-name="Layer 2"><polygon class="cls-1" points="27.17 28.43 40.49 16.64 480.26 16.76 478.65 282.44 480.29 358.47 480.26 488.07 6.2 491.86 5.29 382.48 7.12 354.27 15.73 351.24 16.07 280.07 27.17 28.43"/><polygon class="cls-2" points="37.35 37.52 52.76 26.67 465.38 25.74 466.64 278.15 28.6 279.32 37.35 37.52"/><polygon class="cls-3" points="466.49 35.5 468.46 25.97 52.76 26.67 37.35 37.52 28.6 279.32 36.04 279.32 42.84 41.3 54.58 32.6 466.49 35.5"/><path class="cls-4" d="M184.27,279l182.84.38s6-20.33,6.38-33.76-10.89-42.07-10.89-42.07L204.92,190.76s-17.65,16.11-21.78,28-6.76,24.93-5.63,35.29S184.27,279,184.27,279Z"/><polygon class="cls-5" points="25.96 47 18.87 216.54 118.3 218.28 120.1 212.14 125.96 218.68 478.85 249.31 480.26 55.82 25.96 47"/><polygon class="cls-6" points="17.14 52.04 422.59 56.24 426.83 62.7 431.58 56.93 480.89 58.98 481.25 92.35 481.52 241.02 466.52 242.98 125.1 214.37 119.85 206.86 116.09 213.62 11.6 209.66 19.23 136.24 17.14 52.04"/><polygon class="cls-7" points="31.42 85.72 21.52 198.65 112.94 208.22 124.1 197.06 127.25 205.96 464.56 231.83 464.72 125.11 454.69 110.08 31.42 85.72"/><polygon class="cls-8" points="14.55 363.31 14.26 379.53 14.87 421.36 470.97 420.42 473.29 391.04 474.07 365.96 14.55 363.31"/><path class="cls-5" d="M194.85,235.67l8.56.66,6.92,9.88s29.86-2.09,37.44,2.52,14.31,15.68,14.31,15.68l-7.9.33s-3.11-7.66-10.58-10.3S207,260,207,260l-6.58-9.22-5.93,6.26S159.43,252,154,254.44s-10.16,13.77-10.16,13.77l-5.6-1s6.65-16.85,13.78-20.36,36.57.66,36.57.66Z"/><path class="cls-9" d="M194.85,230.4l8.56.66,6.92,9.88s29.86-2.09,37.44,2.52,14.31,15.68,14.31,15.68l-7.9.33s-3.11-7.66-10.58-10.3-36.57,5.6-36.57,5.6l-6.58-9.22-5.93,6.26s-35.09-5.07-40.52-2.64-10.16,13.77-10.16,13.77l-5.6-1s6.65-16.84,13.78-20.35,36.57.66,36.57.66Z"/><polygon class="cls-10" points="28.18 289.34 23.81 348.62 472.72 350.94 466.76 288.04 28.18 289.34"/><polygon class="cls-11" points="33.35 296.98 467.56 298.89 466.76 288.04 26.72 289.08 23.81 348.62 32.32 348.58 33.35 296.98"/><path class="cls-5" d="M309.44,267.22,322,265.57l8.57,14.5,20.84-.54c11.69-.3,24.48-1.17,35.92,2.68,14.47,4.88,20.6,16.77,25,30.53,0,0-10.19-1.29-10.21-1.32-2.68-3.86-8.26-11-9.94-12.3-4.87-3.88-11-5.18-17.21-6.24-7.33-1.25-13.91.95-21.09,2-8.77,1.31-17.16,3.62-25.93,4.93l-10.54-15.15-11.53,12.85-26.75-2.84c-8.05-.85-17.86-3-26.17-1.45-9.7,1.87-18.45,9.23-21.06,16l-9.69-.59c6.15-11,17.73-21,18.89-21.52,8.34-3.52,17.13-6.66,35.7-5.94l22.82.88Z"/><path class="cls-9" d="M309.44,262,322,260.3l8.57,14.5,20.84-.54c11.69-.3,24.48-1.17,35.92,2.68,14.47,4.88,20.6,16.77,25,30.53,0,0-10.19-1.29-10.21-1.32-2.68-3.86-8.26-11-9.94-12.3-4.87-3.88-11-5.18-17.21-6.24-7.33-1.25-13.91.95-21.09,2-8.77,1.31-17.16,3.62-25.93,4.93l-10.54-15.15-11.53,12.85-26.75-2.84c-8.05-.85-17.86-3-26.17-1.45-9.7,1.87-18.45,9.23-21.06,16l-9.69-.59c6.15-11,17.73-21,18.89-21.52,8.34-3.52,17.13-6.66,35.7-5.94l22.82.88Z"/><polygon class="cls-12" points="18.92 431.01 16.85 484.3 470.27 478.59 473.37 430.06 18.92 431.01"/><polygon class="cls-13" points="21.69 367.88 25.54 419.67 14.87 419.11 14.87 361.28 473.49 364.78 473.29 373.39 21.69 367.88"/><polygon class="cls-14" points="27.18 438.62 29.25 485.25 16.85 483.35 15.82 430.06 472.33 431.01 473.37 441.47 27.18 438.62"/><g id="Layer_3" data-name="Layer 3"><path class="cls-15" d="M320,110.12l91.26-17.06,12.52,44.7s14.74-9.82,38.47-5.64c39.53,6.9,43.78,43.44,43.78,43.44l-31.86,12.8s-3.24-14.89-21.29-16.05c-16.74-1.07-20.26,7.56-20.26,7.56l-5,35.83,13.16-1.41,14.24,13.45-7.73,23.55-15.16-.2-8.73-8.76-.6,8.65-37.7-10s-4.56,8.92-29.26,8.64c-48.43-.52-60.1-63.73-60.1-63.73l38.35-7.38s4.38,30.13,18.22,25.35c17.94-6.2,1.1-51.24,1.1-51.24L332.1,157Z"/><path class="cls-9" d="M321.74,105.57l91.2-17.08,12.52,44.7s14.75-9.73,38.57-5.58C503.56,134.51,507.8,171,507.8,171L476,183.84s-3.24-14.88-21.3-16c-16.73-1.07-20.26,7.56-20.26,7.56l-4.95,35.81,13.16-1.41,14.22,13.42-7.73,23.55-15.17-.2-8.73-8.77-.6,8.65-37.72-10s-4.56,8.92-29.26,8.64c-48.43-.52-60.1-63.73-60.1-63.73l38.35-7.38s4.38,30.13,18.22,25.36c17.94-6.21,1.1-51.24,1.1-51.24l-21.37,4.41Z"/><path class="cls-16" d="M330.7,113.41,407.61,99.1l8.72,30.29-30.07,3.09,6,57.77s5,41.07-31.29,45.6-52.4-48.2-52.4-48.2l21.29-5.38s3.81,30,24.32,27.1S371,186.05,371,186.05l-8.14-48-24.92,6.56Z"/><path class="cls-16" d="M407.19,156.14,396,230.5l20.32,4.94,9.82-63.58s5.3-13.35,28.1-12.27c22.48,1.1,27.9,16.58,27.9,16.58l17.19-6.71s-2.57-22.13-36.23-31.88c-20.31-5.88-37.38,9-37.38,9l-11.17-11L399,149.8Z"/><polygon class="cls-16" points="436.84 214.98 428.78 228.2 431.2 235.99 443.13 239.75 449.44 226.06 445.59 217.34 436.84 214.98"/></g><path class="cls-6" d="M102.6,110.94c-.08-.76-12.59-6.57-13.82-7-13.43-4.42-28.72-2.5-38.06,8.91-10.29,12.57-6.95,31.25,6.47,40.49,6.08,4.19,16.37,5.45,20.72,12.31,3,4.79,1.08,9.85-3.75,12.39-6,3.15-11.49.83-17.09-1.84-4.91-2.33-9.83-4.62-14.75-6.93l-1.93,18.32c0,.64,9,4.72,10,5.23,11.31,5.67,24.68,6.36,36.76,2.92,10.67-3,12.65-15.35,13.72-24.95a23.54,23.54,0,0,0-.79-7.26C97.65,152,93.31,151,83.85,145.3c-4.3-2.57-8.89-4.79-12.65-8.17-2.79-2.5-5.15-6.34-4.92-10.22.43-7.27,9.41-9.63,14.28-9,3,.4,13.16,5.76,19.74,10.42C100.3,128.33,102.5,111.69,102.6,110.94Z"/><path class="cls-17" d="M96.87,105.21c-.08-.76-12.59-6.57-13.82-7-13.43-4.42-28.72-2.5-38.06,8.91-10.29,12.57-7,31.25,6.47,40.49,6.08,4.19,16.36,5.45,20.72,12.31,3,4.79,1.08,9.85-3.75,12.39-6,3.15-11.49.83-17.09-1.84-4.91-2.33-9.83-4.62-14.75-6.93l-1.93,18.32c0,.64,9.05,4.72,10.05,5.23C56,192.78,69.39,193.47,81.47,190c10.66-3.05,12.65-15.35,13.72-24.95a23.54,23.54,0,0,0-.79-7.26c-2.48-11.52-6.82-12.59-16.28-18.25-4.3-2.57-8.89-4.79-12.65-8.17-2.79-2.5-5.15-6.34-4.92-10.22.43-7.27,9.41-9.63,14.28-9,3,.4,13.16,5.76,19.74,10.42C94.57,122.6,96.77,106,96.87,105.21Z"/><path class="cls-6" d="M119.74,193.3l9.64-89.16c0-.23,28.65,1.47,31,1.74,19.56,2.3,39.16,17.83,39.78,38.57.93,31.09-12.58,44.17-41.72,48.86C155.52,193.77,119.19,198.45,119.74,193.3Zm43.89-16.94c8.72-3,14.63-12,15.31-21.18,1.67-22.33-13.95-26.1-31.07-31l-4,53C143.8,177.84,162.32,176.82,163.63,176.36Z"/><path class="cls-17" d="M114,187.52l9.63-89.16c0-.24,28.66,1.47,31,1.74,19.56,2.3,39.16,17.83,39.78,38.57.94,31.08-12.57,44.16-41.72,48.85C149.74,188,113.4,192.67,114,187.52Zm43.89-16.94c8.71-3,14.62-12,15.31-21.19,1.67-22.32-14-26.1-31.08-31l-4,53C138,172.06,156.53,171,157.85,170.58Z"/><path class="cls-6" d="M289.29,121.55s-1.58,19-1.58,19c.87-3.15-31-6.55-35-5.35-12.47,3.71-25.21,20.17-22.22,33.59,1.81,8.15,10.56,16.24,17.62,19.11,1.52.61,17.94,2.77,18.22.19l1.59-14.26-20.6-3.17.79-15.85,42,5.55s-2.38,41.17-2.38,41.21c-.4,2.92-23.3,4.52-25.93,4.75a45.49,45.49,0,0,1-37.12-14.72c-10.38-11.52-18-33.85-11.49-48.74,5.64-12.88,24.23-26,37.84-28.34C254.5,114,289.58,118.14,289.29,121.55Z"/><path class="cls-17" d="M285.11,115s-1.59,19-1.59,19c.88-3.15-31-6.55-35-5.35-12.46,3.71-25.21,20.17-22.22,33.59,1.81,8.15,10.56,16.24,17.62,19.11,1.53.61,17.94,2.77,18.23.19l1.58-14.26-20.6-3.17.79-15.85,42,5.55s-2.38,41.17-2.38,41.21c-.39,2.92-23.3,4.52-25.93,4.75a45.47,45.47,0,0,1-37.11-14.72c-10.39-11.52-18-33.85-11.5-48.74,5.65-12.88,24.23-26,37.84-28.34C250.31,107.41,285.39,111.59,285.11,115Z"/></g></svg>